<svg width="600" height="140" viewBox="0 0 600 140" fill="none" xmlns="http://www.w3.org/2000/svg">
  <!-- N -->
  <path d="M20 20 L20 120 L40 120 L40 55 L80 120 L100 120 L100 20 L80 20 L80 85 L40 20 Z" fill="#000000"/>
  
  <!-- O with window frame (gold) -->
  <g transform="translate(130, 20)">
    <rect x="0" y="0" width="100" height="100" fill="#d4af37" rx="4"/>
    <rect x="8" y="8" width="84" height="84" fill="#ffffff" rx="2"/>
    <rect x="12" y="12" width="76" height="76" fill="#d4af37" rx="2"/>
    <rect x="16" y="16" width="68" height="68" fill="#ffffff"/>
    <!-- Window panes -->
    <line x1="50" y1="16" x2="50" y2="84" stroke="#d4af37" stroke-width="3"/>
    <line x1="16" y1="50" x2="84" y2="50" stroke="#d4af37" stroke-width="3"/>
  </g>
  
  <!-- O with door frame (gold) -->
  <g transform="translate(260, 20)">
    <rect x="0" y="0" width="100" height="100" fill="#d4af37" rx="4"/>
    <rect x="8" y="8" width="84" height="84" fill="#ffffff" rx="2"/>
    <rect x="16" y="16" width="68" height="68" fill="#d4af37"/>
    <rect x="20" y="20" width="60" height="60" fill="#ffffff"/>
  </g>
  
  <!-- H -->
  <path d="M390 20 L390 120 L410 120 L410 75 L450 75 L450 120 L470 120 L470 20 L450 20 L450 60 L410 60 L410 20 Z" fill="#000000"/>
  
  <!-- TM -->
  <text x="500" y="35" font-family="Arial, sans-serif" font-size="20" fill="#000000" font-weight="bold">™</text>
</svg>
